<?xml version="1.0" encoding="UTF-8"?>
<svg version="1.1" xmlns="http://www.w3.org/2000/svg" width="3621" height="1148">
<path d="M0 0 C11.88348041 7.38651117 17.16254329 16.89355866 20.26416016 30.15917969 C20.69352312 32.07910041 21.11822597 34.00006732 21.5390625 35.921875 C22.03239863 38.12987211 22.52606776 40.33779483 23.02001953 42.5456543 C23.2799469 43.7141391 23.53987427 44.8826239 23.80767822 46.08651733 C40.49140618 120.86801693 59.870113 194.97918231 84.01074219 275.37744141 C85.57653016 280.57835687 87.11997284 285.78546204 88.65286255 290.99615479 C98.1403222 323.21014195 107.83591935 352.88686033 139.15161133 370.04341125 C150.92497 376.13642761 163.92491318 378.85156457 176.76565552 381.66442871 C182.50561218 382.925472 188.23496639 384.23310865 193.96484375 385.5390625 C195.17913559 385.81540527 196.39342743 386.09174805 197.64451599 386.37646484 C273.51396822 403.73072592 348.56352903 424.84486131 422.75866699 448.29364014 C424.93315157 448.9789326 427.10931519 449.65858529 429.28613281 450.33642578 C433.07224935 451.51674555 436.84931591 452.72418675 440.625 453.9375 C441.68525391 454.26669434 442.74550781 454.59588867 443.83789062 454.93505859 C454.24549696 458.34628761 462.68478961 464.56600827 468.25390625 474.16015625 C473.5476024 485.2358969 474.51743124 497.26395539 471 509 C466.63715052 520.10804441 460.65502466 527.58878398 449.98046875 532.9921875 C441.54917002 535.84313779 433.97008421 536.23713275 425.23204041 534.9055481 C424.20460065 534.76337101 423.17716089 534.62119392 422.1185866 534.47470844 C418.69881564 533.997196 415.28315456 533.49497456 411.86694336 532.99267578 C409.4002874 532.64305174 406.93341253 532.29496926 404.46633911 531.94830322 C399.14392143 531.19689405 393.82319837 530.43482176 388.50370598 529.66305923 C380.68879763 528.52932363 372.87111557 527.41572609 365.05269081 526.30653296 C352.20089436 524.48273685 339.35135398 522.64352117 326.50317383 520.79443359 C314.31148335 519.03986494 302.11897562 517.2912088 289.92504883 515.55224609 C288.81928625 515.39454905 288.81928625 515.39454905 287.69118504 515.23366621 C283.23662606 514.59844607 278.78202843 513.96349729 274.32741544 513.32865602 C267.65383347 512.37757593 260.98029019 511.42622463 254.30679321 510.47454834 C253.57461294 510.37014347 252.84243266 510.26573861 252.0880651 510.15816996 C241.76617533 508.68613615 231.44514049 507.20822967 221.12470378 505.72604451 C214.5479484 504.78161516 207.97104224 503.83823713 201.39404297 502.89550781 C200.67676843 502.79269212 199.95949388 502.68987642 199.22048375 502.5839451 C178.61003469 499.63048586 157.99172838 496.73992659 137.36379659 493.91119313 C133.30053384 493.35384032 129.23760043 492.79411422 125.17474079 492.23383141 C123.85137547 492.05139784 122.52800937 491.86896996 121.20464247 491.68654788 C118.60547903 491.32824941 116.00632322 490.96989547 113.40717536 490.61148393 C105.97826478 489.58851314 98.54766926 488.57913143 91.11548662 487.5802269 C86.58146613 486.96783195 82.04918792 486.34322314 77.51727939 485.7154088 C75.44704498 485.4313228 73.37608703 485.15244786 71.30436063 484.87945509 C48.76895013 481.90589016 31.28392602 475.26134082 15 459 C14.18402344 458.195625 13.36804688 457.39125 12.52734375 456.5625 C-5.50406398 437.75787581 -10.57896114 412.73023363 -13.0078125 387.71484375 C-13.17505856 386.08068138 -13.34344945 384.44663585 -13.51287842 382.81269836 C-13.87208708 379.3355521 -14.2258065 375.85791339 -14.57513428 372.37976074 C-15.52311157 362.96207534 -16.52007526 353.54947306 -17.515625 344.13671875 C-17.617505 343.17136326 -17.71938499 342.20600777 -17.82435226 341.21139908 C-25.81101326 265.65977933 -36.17661392 190.31976409 -47.8125 115.25 C-47.9469968 114.38185543 -48.08149361 113.51371086 -48.22006607 112.61925888 C-49.00075776 107.58420292 -49.78565615 102.54982394 -50.57510948 97.51613426 C-50.82851792 95.89849379 -51.0811311 94.28072852 -51.3329258 92.66283607 C-52.71601464 83.78149752 -54.17642717 74.92252488 -55.79052734 66.08007812 C-56.22462231 63.65596788 -56.65721923 61.23159457 -57.08945274 58.80715179 C-57.4953273 56.57454015 -57.92562151 54.34765742 -58.3573761 52.11993408 C-60.95154402 38.03946697 -59.97184469 25.32978645 -52 13 C-40.16575582 -3.45620221 -18.28905093 -9.82782069 0 0 Z " fill="#1D1E1C" transform="translate(655,4)"/>
<path d="M0 0 C1.86002947 0.25998932 1.86002947 0.25998932 3.7576353 0.52523094 C7.16316843 1.0014891 10.56703586 1.48880852 13.97071564 1.9781121 C17.65929892 2.5063297 21.3493607 3.02402829 25.03924561 3.5430603 C31.43436279 4.44406408 37.82852197 5.35162084 44.22207069 6.26368523 C53.53551123 7.5922622 62.85037337 8.91064532 72.16559108 10.22669674 C87.3742261 12.37564092 102.58171709 14.53257217 117.78849792 16.69459534 C132.39438088 18.77116729 147.00074502 20.84429551 161.60783386 22.91236877 C162.50017527 23.03870795 163.39251669 23.16504713 164.31189875 23.29521476 C168.79816878 23.93036299 173.28445007 24.56543163 177.77073824 25.20045173 C186.63458745 26.45510711 195.49838469 27.71012942 204.3621521 28.96536255 C205.22662892 29.08778277 206.09110574 29.210203 206.98177882 29.33633292 C218.70081239 30.99597518 230.41955261 32.65767292 242.13798421 34.32156018 C244.52657999 34.66068303 246.91519182 34.99969266 249.3038078 35.33867329 C256.25042116 36.32459732 263.1969492 37.31109848 270.14298812 38.30106257 C285.13143112 40.43690192 300.12226567 42.55006324 315.12364305 44.59329381 C319.57319118 45.20036213 324.0220125 45.81274105 328.47085216 46.42497702 C331.95776085 46.90415257 335.44512825 47.37916724 338.93396723 47.84409606 C342.74274688 48.35314247 346.5495266 48.87531198 350.35617065 49.40005493 C352.00235943 49.61429845 352.00235943 49.61429845 353.68180454 49.83287013 C376.61283984 53.04754362 395.70333974 64.06988511 410.02262878 82.39015198 C423.76110158 101.98767935 428.10091937 122.72776693 430.46794128 146.01515198 C430.68007995 148.01449091 430.89339892 150.0137049 431.10780334 152.01280212 C431.56180357 156.260466 432.00972949 160.50870538 432.45280457 164.75752258 C433.63413077 176.06818219 434.86545515 187.37348915 436.09294128 198.67921448 C436.27811687 200.38879271 436.27811687 200.38879271 436.46703339 202.13290787 C445.43542452 284.86241887 457.3145858 367.20961236 470.17497253 449.41358948 C470.29973528 450.21237518 470.42449802 451.01116089 470.55304146 451.83415222 C471.75000934 459.48817096 472.96438664 467.13681017 474.28874207 474.77003479 C474.57365257 476.41934494 474.57365257 476.41934494 474.86431885 478.10197449 C475.20468016 480.05160567 475.55214553 482.0000211 475.90933228 483.94664001 C478.42016861 498.26786996 476.41725018 510.68677905 468.06169128 522.88233948 C461.62893308 530.79389268 453.22844806 536.52820426 442.94010925 537.60890198 C429.4612718 538.53867736 420.38057516 536.36411777 409.54216003 528.07374573 C401.20695359 519.19578166 398.40973765 509.92923686 395.96641541 498.33604431 C395.37659355 495.54045075 394.75982389 492.75192147 394.13639832 489.96363831 C393.22876137 485.89930179 392.32993347 481.83316364 391.43669128 477.76564026 C389.0269918 466.84585042 386.46591656 455.96104498 383.89762878 445.07765198 C383.6285672 443.93661011 383.35950562 442.79556824 383.08229065 441.61994934 C367.81483441 377.02456696 350.01129476 313.12273368 330.79975891 249.5947113 C329.1364477 244.09414254 327.48540908 238.5905697 325.86442566 233.07737732 C321.98614992 219.8953297 318.02964926 207.27813117 311.02262878 195.39015198 C310.52247253 194.53163635 310.02231628 193.67312073 309.50700378 192.78858948 C305.72031737 186.7340524 300.97350584 181.51204378 296.02262878 176.39015198 C295.4309491 175.77269104 294.83926941 175.1552301 294.22966003 174.51905823 C290.11777223 170.58871072 285.46382581 167.64025779 280.58512878 164.76515198 C279.99594666 164.40477844 279.40676453 164.04440491 278.79972839 163.67311096 C264.81590476 155.77562291 247.15808169 153.46349139 231.70478821 149.94639587 C152.84159417 131.95084831 74.99664467 110.32563752 -2.22737122 86.26515198 C-3.2506955 85.9467334 -4.27401978 85.62831482 -5.32835388 85.30024719 C-41.77663664 73.94136582 -41.77663664 73.94136582 -49.97737122 60.39015198 C-55.78342099 49.11301683 -57.13490375 36.29286031 -53.47737122 24.01515198 C-49.58689001 14.0773614 -43.47042198 6.33865716 -33.97737122 1.39015198 C-33.35346497 1.0524176 -32.72955872 0.71468323 -32.08674622 0.36671448 C-22.40190079 -4.06878196 -10.14234329 -1.47831446 0 0 Z " fill="#1D1E1C" transform="translate(54.97737121582031,610.6098480224609)"/>
<path d="M0 0 C9.31658007 7.93759168 15.4238784 17.40199931 17.125 29.6875 C17.50657387 37.25934132 16.3704279 44.45691699 15.11305046 51.90152931 C14.72585783 54.19467123 14.34758674 56.48914322 13.97132874 58.78410339 C13.42156815 62.13329224 12.86846577 65.48190395 12.31292725 68.83013916 C10.79503263 77.99306388 9.31532415 87.16219489 7.83984375 96.33203125 C7.68600975 97.28783836 7.53217575 98.24364548 7.37368011 99.22841644 C-6.51312124 185.65460494 -17.40499714 272.51475273 -27 359.51171875 C-27.08174595 360.2525042 -27.1634919 360.99328964 -27.247715 361.75652313 C-28.09559548 369.450793 -28.92740768 377.14634606 -29.72314453 384.84619141 C-29.8563208 386.12452347 -29.98949707 387.40285553 -30.12670898 388.71992493 C-30.37112428 391.07658124 -30.61170335 393.43364043 -30.84741211 395.79118347 C-33.59974773 422.31395741 -44.53094278 446.04099733 -64.875 463.6875 C-85.13088124 479.1054265 -108.46516867 480.8621837 -132.91137695 484.29418945 C-135.40188065 484.646046 -137.89234797 484.99816021 -140.38278198 485.35050964 C-146.42889778 486.20524339 -152.47538842 487.05727943 -158.52205852 487.90808175 C-165.67032805 488.91402991 -172.81812681 489.92330484 -179.96591046 490.93269863 C-192.84144521 492.75085447 -205.71735906 494.5663111 -218.59350586 496.38012695 C-230.84112854 498.10540955 -243.0885457 499.83213953 -255.33569336 501.56079102 C-256.07906004 501.66571157 -256.82242673 501.77063213 -257.58831967 501.8787321 C-263.57007198 502.72301253 -269.55181781 503.56733876 -275.53355846 504.41170177 C-292.50284189 506.80700596 -309.47243735 509.20004614 -326.44314575 511.5852356 C-331.48971006 512.29461268 -336.5362647 513.00405845 -341.58281383 513.7135435 C-343.00592509 513.91360684 -344.42903884 514.11365242 -345.85215512 514.31368008 C-363.95169765 516.85773453 -382.04820643 519.42138275 -400.14043522 522.01703739 C-408.43814445 523.20743026 -416.73695544 524.39004721 -425.03609794 525.57040256 C-431.49843817 526.49023341 -437.95914229 527.42057333 -444.41874933 528.3593955 C-448.31957877 528.9236973 -452.22182398 529.47765428 -456.12455773 530.02861619 C-457.89777125 530.28110477 -459.67038153 530.53787657 -461.44227576 530.79946303 C-475.79806829 532.91571503 -487.15765643 533.74727568 -499.875 525.6875 C-505.48815302 521.38784531 -508.91502957 516.04113615 -511.875 509.6875 C-512.19597656 509.03523437 -512.51695312 508.38296875 -512.84765625 507.7109375 C-517.06423926 497.55191426 -516.07019362 484.32779416 -512.12890625 474.26171875 C-510.16696025 470.23392307 -507.91720223 466.97005681 -504.875 463.6875 C-504.27300781 463.00945312 -503.67101562 462.33140625 -503.05078125 461.6328125 C-491.53143715 450.00376036 -470.72268861 446.67528254 -455.5 442 C-454.32549286 441.63811584 -453.15098572 441.27623169 -451.94088745 440.90338135 C-390.88985638 422.11790019 -329.33071059 405.10058127 -267.3125 389.8125 C-266.57213501 389.62996674 -265.83177002 389.44743347 -265.06896973 389.2593689 C-250.53571795 385.6789345 -236.0002896 382.11710786 -221.390625 378.859375 C-220.02098351 378.55234146 -220.02098351 378.55234146 -218.62367249 378.23910522 C-214.63267855 377.3470909 -210.63983021 376.47200482 -206.63647461 375.63720703 C-192.16790501 372.52962649 -179.41827085 367.11256122 -167.875 357.6875 C-167.23304688 357.19636719 -166.59109375 356.70523437 -165.9296875 356.19921875 C-154.58793343 347.17158939 -146.48218656 333.80290282 -141.61328125 320.30859375 C-141.31552795 319.48999878 -141.01777466 318.67140381 -140.71099854 317.82800293 C-136.80133409 306.90273498 -133.46696793 295.79649597 -130.125 284.6875 C-129.5849231 282.89939407 -129.5849231 282.89939407 -129.03393555 281.07516479 C-109.89904842 217.65779719 -92.52600726 153.75523172 -76.9375 89.375 C-76.78130314 88.73025726 -76.62510628 88.08551453 -76.46417618 87.42123413 C-73.15623251 73.75666095 -69.92587003 60.08029586 -66.9296875 46.34375 C-66.70262619 45.31071243 -66.47556488 44.27767487 -66.24162292 43.21333313 C-65.19974725 38.46899492 -64.17594931 33.72260414 -63.19360352 28.96557617 C-61.39445848 20.50921283 -59.71932656 13.37230847 -53.875 6.6875 C-53.33528564 6.04014893 -52.79557129 5.39279785 -52.23950195 4.72583008 C-39.29600629 -10.27131316 -15.47840343 -11.49232629 0 0 Z " fill="#BE1522" transform="translate(514.875,9.3125)"/>
<path d="M0 0 C1.02867187 0.63615234 1.02867187 0.63615234 2.078125 1.28515625 C10.95533962 7.36706474 16.40747875 15.60173543 19 26 C21.16201171 37.9864473 19.73312559 49.70324453 13 60 C3.99142268 72.15979902 -7.59315369 75.81470051 -21.5625 80.25 C-22.34065063 80.49955444 -23.11880127 80.74910889 -23.92053223 81.00622559 C-108.90935589 108.24682997 -195.34509523 131.15181066 -282.30859375 151.1484375 C-299.07144706 155.0171043 -313.43244043 158.87132198 -327 170 C-327.85335937 170.68964844 -328.70671875 171.37929688 -329.5859375 172.08984375 C-347.03630901 186.9360829 -354.44976026 206.82584329 -360.875 228.125 C-361.51227437 230.20330407 -362.15015059 232.28142367 -362.78857422 234.359375 C-375.72635521 276.66764547 -387.9046619 319.21873399 -399.20428467 361.99291992 C-400.01708066 365.06454937 -400.83448737 368.13492264 -401.65283203 371.20507812 C-410.33693493 403.82320114 -418.28442748 436.5896397 -425.93477821 469.46240997 C-426.40210305 471.46659029 -426.87211636 473.47012506 -427.34257507 475.47357178 C-428.81931752 481.78155892 -430.24256856 488.09487802 -431.5546875 494.43945312 C-431.92998596 496.20195404 -431.92998596 496.20195404 -432.31286621 498.00006104 C-432.7724198 500.16902121 -433.21434769 502.34183845 -433.63342285 504.51898193 C-435.91429689 515.1319613 -441.99757884 523.87400011 -451 530 C-461.02937882 536.07000807 -472.78122912 536.85752524 -484.09375 534.30078125 C-494.98601882 530.31703478 -503.80676611 522.00238399 -508.8125 511.625 C-514.73265359 497.44007754 -512.04939185 484.59988654 -509.63628578 469.88271332 C-509.21385874 467.30530131 -508.79628235 464.7271424 -508.37992859 462.14874268 C-507.77811234 458.42258565 -507.17489107 454.6966604 -506.57070923 450.97088623 C-492.44029041 363.72766412 -480.55050066 276.17701403 -469.22346687 174.17292404 C-468.97535073 171.91900819 -468.72681474 169.66513904 -468.47813416 167.4112854 C-468.39707585 166.67645432 -468.31601755 165.94162323 -468.23250294 165.18452454 C-468.06954748 163.70739706 -467.9065425 162.23027505 -467.74348736 160.75315857 C-467.31759985 156.8921577 -466.89407484 153.03091545 -466.47396851 149.16928101 C-466.03644257 145.14995415 -465.59279078 141.13134226 -465.14524651 137.11311913 C-464.97835399 135.60517066 -464.81356056 134.09698807 -464.65109444 132.58855629 C-462.36567258 111.39452473 -456.41112828 93.85125737 -443 77 C-442.47019531 76.30519531 -441.94039062 75.61039063 -441.39453125 74.89453125 C-434.35444052 66.18567827 -424.98051607 59.70893298 -415.125 54.5625 C-414.53855713 54.24474609 -413.95211426 53.92699219 -413.34790039 53.59960938 C-399.95177778 46.98775106 -382.53014223 46.54067361 -367.94433594 44.50097656 C-365.53443261 44.16071435 -363.12458302 43.82007131 -360.71478271 43.4790802 C-355.53128292 42.746485 -350.347418 42.01653564 -345.16320038 41.28903961 C-337.55151501 40.22089604 -329.9405238 39.1478692 -322.32967046 38.0738152 C-309.82280072 36.30896779 -297.31538181 34.54804392 -284.80761719 32.78955078 C-272.93361561 31.12015193 -261.05988129 29.44887374 -249.18652344 27.77490234 C-248.46741769 27.67352193 -247.74831195 27.57214152 -247.00741512 27.46768898 C-243.38536044 26.95704093 -239.76331036 26.4463603 -236.14126301 25.93566036 C-217.45235919 23.30057789 -198.76329221 20.66669503 -180.07287598 18.0423584 C-178.65095743 17.84268447 -177.22903935 17.64300717 -175.80712175 17.44332647 C-175.10488484 17.34471116 -174.40264794 17.24609584 -173.67913112 17.14449218 C-170.85395168 16.74774607 -168.02877365 16.35098985 -165.20359695 15.95422423 C-163.80032245 15.75715602 -162.39704609 15.56010104 -160.99376786 15.3630594 C-142.61367229 12.7821502 -124.23616624 10.18390917 -105.8619194 7.56167984 C-97.05582301 6.30499078 -88.24886094 5.05442243 -79.44165921 3.80550551 C-72.4942288 2.81975613 -65.54803272 1.82585389 -58.6026926 0.82548904 C-54.3749585 0.21861947 -50.14611037 -0.38017828 -45.9169054 -0.97670269 C-43.98926951 -1.25026437 -42.06209969 -1.52713615 -40.13547802 -1.80775166 C-9.96258117 -6.19765224 -9.96258117 -6.19765224 0 0 Z " fill="#1D1E1C" transform="translate(1108,609)"/>
<path d="M0 0 C0.90136688 0.06144196 1.80273376 0.12288391 2.73141479 0.18618774 C40.98623614 2.82621618 40.98623614 2.82621618 54.8125 18.5625 C62.52206507 28.95741919 66.87671166 41.598467 65.8125 54.5625 C63.5880309 68.5398728 58.27798224 80.620047 46.5703125 89.20703125 C44.03114093 90.75874721 41.43498706 92.15608557 38.8125 93.5625 C37.61167363 94.27506711 36.41395936 94.9928947 35.21875 95.71484375 C16.97597802 106.60247006 -1.97180741 111.61449525 -23.1875 112.5625 C-22.42566406 112.96339844 -21.66382812 113.36429688 -20.87890625 113.77734375 C-9.37828697 120.10914538 -2.16594323 128.12954501 5.45068359 138.67822266 C17.42545864 157.29968129 17.42545864 157.29968129 32.8125 172.5625 C36.89548226 173.12159461 36.89548226 173.12159461 40.8125 172.5625 C44.71868151 169.11288516 48.05773733 165.08563322 51.4375 161.125 C51.95965088 160.51446777 52.48180176 159.90393555 53.01977539 159.27490234 C56.99743327 154.59156003 60.82605663 149.80644781 64.59619141 144.95532227 C68.10737463 140.44013856 71.69434056 135.99231354 75.3125 131.5625 C79.36247918 126.60030981 83.37055479 121.61095614 87.3125 116.5625 C91.79513195 110.82158539 96.37294024 105.16362223 100.97875977 99.52124023 C104.45143482 95.25939091 107.87076306 90.96118899 111.25 86.625 C115.9325215 80.62035478 120.76237865 74.74589877 125.61865234 68.88134766 C129.72379405 63.91314851 133.73783817 58.88396872 137.69921875 53.80078125 C141.18103977 49.34160696 144.73498072 44.94515769 148.3125 40.5625 C152.36232417 35.60017327 156.37038433 30.61083264 160.3125 25.5625 C164.44779403 20.26969184 168.64264097 15.02803978 172.875 9.8125 C173.71611328 8.77416016 173.71611328 8.77416016 174.57421875 7.71484375 C175.09757812 7.07160156 175.6209375 6.42835938 176.16015625 5.765625 C176.62429932 5.19489258 177.08844238 4.62416016 177.56665039 4.03613281 C178.8125 2.5625 178.8125 2.5625 180.8125 0.5625 C183.58376729 0.37439781 186.25430522 0.31073316 189.02587891 0.33544922 C189.8747316 0.33515717 190.72358429 0.33486511 191.59815979 0.33456421 C194.41189699 0.33596072 197.22537139 0.35153697 200.0390625 0.3671875 C201.98676407 0.37091649 203.93446752 0.373764 205.88217163 0.37576294 C211.01474158 0.38340839 216.14719879 0.40306468 221.27972412 0.4251709 C226.51459223 0.44560972 231.74947851 0.45476045 236.984375 0.46484375 C247.26046627 0.48630973 257.53647377 0.52045664 267.8125 0.5625 C270.24854957 38.47624257 272.67754542 76.3904305 275.09469604 114.30538273 C275.46895571 120.17594122 275.84331352 126.04649322 276.21850586 131.91699219 C276.83912943 141.62859019 277.456714 151.34035907 278.0645752 161.05276489 C278.22800898 163.65481011 278.39293183 166.25676229 278.55944824 168.85861206 C280.09650753 192.90898743 280.09650753 192.90898743 279.8125 204.5625 C229.84718321 204.76888953 229.84718321 204.76888953 209.8125 203.5625 C208.81712596 200.17857216 208.58999809 196.96514143 208.42649841 193.44746399 C208.36622467 192.19284866 208.30595093 190.93823334 208.24385071 189.64559937 C208.18128759 188.25763293 208.11880557 186.86966283 208.05639648 185.48168945 C207.98762677 184.01787226 207.91850584 182.55407153 207.84906006 181.09028625 C207.66151839 177.11500583 207.47905412 173.13950694 207.29760242 169.16394448 C207.10674797 164.99867327 206.9116203 160.83360208 206.71705627 156.66850281 C206.39071093 149.66853242 206.06751839 142.66842205 205.74633789 135.66821289 C205.37565008 127.58950981 205.00069326 119.51101404 204.62326568 111.43262321 C204.25975394 103.65115668 203.89864366 95.86958073 203.53883553 88.08794212 C203.38598731 84.7823296 203.23242647 81.47675134 203.0783062 78.17119789 C202.89657287 74.27005823 202.716989 70.36882512 202.53901672 66.46751213 C202.4736193 65.04091767 202.40752909 63.61435475 202.34066963 62.18782806 C202.00294606 54.9721339 201.7334508 47.78646327 201.8125 40.5625 C198.34286551 40.01542252 195.27020283 39.87235112 191.8125 40.5625 C188.72987768 42.96255256 186.80953926 45.9998867 184.6875 49.25 C183.39356747 51.10010668 182.09793963 52.94902862 180.80078125 54.796875 C179.81585693 56.23256836 179.81585693 56.23256836 178.81103516 57.69726562 C175.64156847 62.24122617 172.25737844 66.61359446 168.875 71 C167.53694126 72.75197884 166.19970596 74.50458688 164.86328125 76.2578125 C163.51306219 78.02607324 162.16280143 79.79430216 160.8125 81.5625 C158.06154835 85.16594151 155.31148569 88.77005847 152.5625 92.375 C151.90096924 93.2424585 151.23943848 94.10991699 150.55786133 95.00366211 C145.8786041 101.14631414 141.23051074 107.31156865 136.61621094 113.50317383 C135.9476709 114.39879028 135.9476709 114.39879028 135.265625 115.3125 C134.64204102 116.15361328 134.64204102 116.15361328 134.00585938 117.01171875 C132.91333348 118.43146599 131.73349015 119.78289734 130.546875 121.125 C128.30671636 123.89671956 128.30671636 123.89671956 127.8125 129.5625 C161.4725 130.0575 161.4725 130.0575 195.8125 130.5625 C195.10863326 134.08183371 194.41551642 136.91443793 193.18359375 140.20703125 C192.87099609 141.04814453 192.55839844 141.88925781 192.23632812 142.75585938 C191.91083984 143.62017578 191.58535156 144.48449219 191.25 145.375 C190.92064453 146.25865234 190.59128906 147.14230469 190.25195312 148.05273438 C189.44215399 150.22393495 188.62891107 152.39377889 187.8125 154.5625 C186.99834122 154.55282196 186.18418243 154.54314392 185.34535217 154.53317261 C177.59470212 154.45010619 169.84602748 154.41646872 162.0950098 154.43552971 C158.11185751 154.44365718 154.13054809 154.43403554 150.14770508 154.38085938 C124.72312826 153.80744833 124.72312826 153.80744833 102.8125 165.5625 C101.73153745 166.40121648 100.64628763 167.23444263 99.55639648 168.06152344 C96.87873335 170.13618226 94.34631995 172.31568231 91.8125 174.5625 C90.64847656 175.52929688 90.64847656 175.52929688 89.4609375 176.515625 C82.89139093 182.06926231 76.13998043 188.63797219 72.4296875 196.48828125 C70.8306718 199.71829297 69.77175772 201.46223654 66.8125 203.5625 C61.69521697 204.45063343 56.46866016 203.91669081 51.30859375 203.6796875 C36.31491177 203.09149584 22.10275536 209.36899643 9.8125 217.5625 C-7.95201876 219.33895188 -26.63673299 209.22700255 -40.1875 198.5625 C-40.88101563 198.02109375 -41.57453125 197.4796875 -42.2890625 196.921875 C-53.9759254 187.26554812 -61.63456432 174.16235506 -67.1875 160.25 C-71.21334535 150.55975769 -77.73475944 143.26170723 -87.1875 138.5625 C-92.09821568 136.62446598 -97.13057923 135.06824979 -102.1875 133.5625 C-101.57330826 124.96381562 -99.37842979 116.86765248 -97.1875 108.5625 C-96.32705078 108.67078125 -96.32705078 108.67078125 -95.44921875 108.78125 C-74.518754 111.06803826 -53.95323941 110.21074156 -36.40576172 97.24609375 C-23.76246495 86.99418 -13.23727643 72.4794031 -10.81640625 56.04296875 C-10.5973896 48.48045262 -12.77833379 42.40894643 -17.83203125 36.70703125 C-25.02997293 30.12652024 -33.17951701 28.52975675 -42.6875 28.0625 C-43.46198486 28.02261963 -44.23646973 27.98273926 -45.03442383 27.94165039 C-60.40656183 27.21275615 -75.80353506 26.93990894 -91.1875 26.5625 C-91.32047485 27.58955048 -91.45344971 28.61660095 -91.5904541 29.67477417 C-92.12180736 33.13473564 -92.8353132 36.38880647 -93.74023438 39.76611328 C-94.22107231 41.5724675 -94.22107231 41.5724675 -94.71162415 43.41531372 C-95.0680873 44.73783455 -95.4246322 46.06033336 -95.78125 47.3828125 C-96.16038995 48.80068007 -96.53917904 50.2186415 -96.91764832 51.63668823 C-97.9525584 55.51000127 -98.99259428 59.38192147 -100.03359604 63.25360107 C-101.13432016 67.35061138 -102.23053141 71.44882917 -103.32739258 75.546875 C-105.48882656 83.61890062 -107.65514277 91.6896088 -109.82318783 99.75986099 C-111.73963563 106.89385299 -113.65417021 114.02835662 -115.56787109 121.16308594 C-118.72031879 132.9156737 -121.87471537 144.66773711 -125.03085327 156.41933441 C-125.59496926 158.51981044 -126.15903559 160.6202998 -126.72305298 162.72080231 C-128.33935972 168.74007041 -129.95661484 174.75908205 -131.57540321 180.77768326 C-132.07085761 182.62025947 -132.56600876 184.46291726 -133.06084251 186.30566025 C-133.73851817 188.82900446 -134.41732147 191.35204259 -135.09643555 193.875 C-135.29523064 194.61616625 -135.49402573 195.3573325 -135.69884491 196.12095833 C-136.46479958 198.96251785 -137.25657269 201.76971806 -138.1875 204.5625 C-162.9375 204.5625 -187.6875 204.5625 -213.1875 204.5625 C-202.85426053 164.37767986 -202.85426053 164.37767986 -199.3046875 151.4140625 C-198.88663289 149.87924954 -198.46882171 148.34437026 -198.05122375 146.80943298 C-197.17463381 143.58906004 -196.29663913 140.36907554 -195.41732788 137.14944458 C-193.28565002 129.34419788 -191.1608407 121.53707949 -189.03530693 113.73015785 C-188.29035271 110.9942988 -187.54508701 108.2585247 -186.79981995 105.52275085 C-183.07398394 91.84158162 -179.37084915 78.15435161 -175.67578125 64.46484375 C-175.14031987 62.48176533 -174.60483824 60.49869237 -174.06933594 58.515625 C-170.95077681 46.96619898 -170.95077681 46.96619898 -167.83660889 35.41558838 C-166.63139267 30.94194113 -165.42426349 26.46881443 -164.21571922 21.99606514 C-163.77072613 20.34761815 -163.32650103 18.69896364 -162.88308144 17.0500927 C-162.27840453 14.80182789 -161.67114273 12.55427706 -161.06323242 10.30688477 C-160.72321701 9.04562271 -160.3832016 7.78436066 -160.03288269 6.48487854 C-159.1875 3.5625 -159.1875 3.5625 -158.1875 1.5625 C-155.50535086 1.176987 -152.90951186 0.92346789 -150.2109375 0.74609375 C-149.38671295 0.68493378 -148.5624884 0.6237738 -147.71328735 0.5607605 C-144.99700448 0.3630346 -142.2799707 0.18061801 -139.5625 0 C-138.63324707 -0.06442291 -137.70399414 -0.12884583 -136.74658203 -0.19522095 C-91.15466901 -3.35571216 -45.58382509 -3.17318384 0 0 Z " fill="#1D1E1C" transform="translate(2782.1875,443.4375)"/>
<path d="M0 0 C0.43449627 19.01757485 -0.78420472 37.98777087 -1.78443027 56.97029114 C-2.03704661 61.78372392 -2.28402845 66.59744628 -2.53175354 71.41113281 C-2.94780905 79.48016269 -3.36771786 87.54898432 -3.7902832 95.61767578 C-4.27730607 104.91754488 -4.75944761 114.21765649 -5.23871845 123.51792812 C-5.75183922 133.47494292 -6.26787517 143.43180485 -6.78510404 153.38860703 C-6.93290909 156.23680666 -7.08024727 159.08503016 -7.22750664 161.93325806 C-7.45958661 166.41837722 -7.69368048 170.90338718 -7.92927933 175.38832283 C-8.01496971 177.02484899 -8.10004068 178.66140774 -8.18441582 180.29800224 C-8.30053935 182.54804818 -8.41902914 184.79795836 -8.53807068 187.04785156 C-8.60351798 188.30132385 -8.66896528 189.55479614 -8.73639584 190.84625244 C-9.0784667 196.23644048 -9.55146876 201.61762513 -10 207 C-34.42 207 -58.84 207 -84 207 C-82.85070528 181.71551608 -82.85070528 181.71551608 -82.16796875 172.65185547 C-82.0531163 171.07659592 -82.0531163 171.07659592 -81.9359436 169.46951294 C-81.68955903 166.10183476 -81.43875108 162.7345058 -81.1875 159.3671875 C-81.01179202 156.98683919 -80.83625833 154.606478 -80.66088867 152.22610474 C-80.29648198 147.28974231 -79.92982327 142.3535539 -79.56152344 137.41748047 C-79.08959228 131.08965827 -78.62373244 124.76140535 -78.15953064 118.43301201 C-77.800008 113.54132583 -77.4371998 108.64988761 -77.07339478 103.75851822 C-76.90010854 101.42297233 -76.72787969 99.08734773 -76.55673218 96.75164413 C-76.31853168 93.50718261 -76.07587878 90.26308428 -75.83203125 87.01904297 C-75.72757187 85.57763947 -75.72757187 85.57763947 -75.6210022 84.1071167 C-75.55375946 83.22468292 -75.48651672 82.34224915 -75.41723633 81.43307495 C-75.36046219 80.66890699 -75.30368805 79.90473904 -75.24519348 79.11741447 C-75.00099048 77.00855346 -74.56248898 75.04491294 -74 73 C-76.42632983 73.37586078 -77.69166665 73.66770888 -79.38682556 75.49458313 C-80.01506981 76.4646656 -80.01506981 76.4646656 -80.65600586 77.4543457 C-81.1438707 78.19493729 -81.63173553 78.93552887 -82.13438416 79.69856262 C-82.91671165 80.92478584 -82.91671165 80.92478584 -83.71484375 82.17578125 C-84.27357681 83.03068649 -84.83230988 83.88559174 -85.40797424 84.7664032 C-87.26193613 87.60823969 -89.09944534 90.46035436 -90.9375 93.3125 C-92.23965118 95.31395458 -93.54305619 97.31459393 -94.84765625 99.31445312 C-97.56071698 103.47552292 -100.26831129 107.64007299 -102.97216797 111.80712891 C-108.51139132 120.33515258 -114.11553226 128.8201356 -119.72036743 137.30511475 C-122.69670551 141.81216285 -125.66855344 146.32216903 -128.640625 150.83203125 C-129.23309525 151.73087036 -129.82556549 152.62970947 -130.43598938 153.55578613 C-134.34505956 159.48677557 -138.25125961 165.41964817 -142.15600586 171.35348511 C-144.86651091 175.47229541 -147.57787333 179.59054096 -150.28930664 183.70874023 C-151.59035642 185.68534444 -152.89097902 187.66222989 -154.19116211 189.6394043 C-155.98575953 192.36837312 -157.78178254 195.0963984 -159.578125 197.82421875 C-160.38367828 199.05044197 -160.38367828 199.05044197 -161.20550537 200.30143738 C-161.6935968 201.04202896 -162.18168823 201.78262054 -162.68457031 202.5456543 C-163.11006165 203.19237595 -163.53555298 203.8390976 -163.97393799 204.50541687 C-165 206 -165 206 -166 207 C-168.95705321 207.08868299 -171.89065056 207.11520296 -174.84765625 207.09765625 C-176.17729652 207.09553383 -176.17729652 207.09553383 -177.53379822 207.09336853 C-180.37673254 207.08775215 -183.21958931 207.07519691 -186.0625 207.0625 C-187.98502491 207.05748711 -189.90755104 207.05292384 -191.83007812 207.04882812 C-196.55341371 207.03862654 -201.27669707 207.01986126 -206 207 C-208.40873897 191.57306375 -210.43119029 176.11124183 -212.35546875 160.6171875 C-212.66488422 158.13947333 -212.97448336 155.66178209 -213.28425598 153.18411255 C-213.92695309 148.03943477 -214.56801612 142.8945571 -215.20776367 137.74951172 C-216.02903871 131.14501028 -216.85363406 124.54093068 -217.67931652 117.93697929 C-218.31596696 112.84323369 -218.9513381 107.7493292 -219.58626747 102.6553688 C-219.89019558 100.21757448 -220.19442299 97.77981746 -220.49895287 95.34209824 C-220.92136045 91.9585246 -221.34215067 88.5747539 -221.76245117 85.19091797 C-221.88864838 84.1822467 -222.01484558 83.17357544 -222.14486694 82.13433838 C-222.25832962 81.21810699 -222.3717923 80.30187561 -222.48869324 79.35787964 C-222.5880376 78.55977308 -222.68738195 77.76166653 -222.78973675 76.93937492 C-223 75 -223 75 -223 73 C-224.65 73.33 -226.3 73.66 -228 74 C-228.27223389 74.86737793 -228.54446777 75.73475586 -228.82495117 76.62841797 C-229.95743639 79.87787171 -231.28582413 82.85799664 -232.80078125 85.9453125 C-233.35838135 87.08887207 -233.91598145 88.23243164 -234.49047852 89.41064453 C-234.78657013 90.01410706 -235.08266174 90.61756958 -235.38772583 91.23931885 C-236.99141315 94.50935283 -238.58224048 97.78561638 -240.171875 101.0625 C-240.66029625 102.0690715 -240.66029625 102.0690715 -241.15858459 103.09597778 C-244.20963174 109.40104599 -247.14186885 115.75859489 -250.0625 122.125 C-256.13736415 135.33389603 -262.53181701 148.38016506 -268.93984985 161.42993164 C-275.02807233 173.83296951 -281.01038638 186.26856252 -286.71313477 198.85400391 C-287.14295654 199.80194824 -287.57277832 200.74989258 -288.015625 201.7265625 C-288.37946289 202.53689941 -288.74330078 203.34723633 -289.11816406 204.18212891 C-290 206 -290 206 -291 207 C-293.95705321 207.08868299 -296.89065056 207.11520296 -299.84765625 207.09765625 C-301.17729652 207.09553383 -301.17729652 207.09553383 -302.53379822 207.09336853 C-305.37673254 207.08775215 -308.21958931 207.07519691 -311.0625 207.0625 C-312.98502491 207.05748711 -314.90755104 207.05292384 -316.83007812 207.04882812 C-321.55341549 207.03777741 -326.27669458 207.02050183 -331 207 C-327.65241187 198.64645634 -323.9213552 190.52426104 -319.95651245 182.44915771 C-318.28643059 179.04590569 -316.62881083 175.63660948 -314.97265625 172.2265625 C-314.63645767 171.53434601 -314.30025909 170.84212952 -313.95387268 170.12893677 C-310.70135836 163.41437659 -307.55939004 156.6513151 -304.4375 149.875 C-299.77183519 139.75365598 -294.9822588 129.69920355 -290.11346436 119.67468262 C-285.83787647 110.8665059 -281.66180854 102.01688249 -277.5625 93.125 C-272.98358723 83.19469284 -268.28514592 73.33205597 -263.5 63.5 C-256.97387142 50.08909069 -250.65735795 36.59185859 -244.40869141 23.04931641 C-242.36775598 18.63141633 -240.31422881 14.21955933 -238.25 9.8125 C-237.76478882 8.76956787 -237.76478882 8.76956787 -237.26977539 7.70556641 C-235.11625625 3.11625625 -235.11625625 3.11625625 -234 2 C-231.53555943 1.90499452 -229.09925374 1.87442015 -226.63452148 1.88647461 C-225.86384338 1.88632858 -225.09316528 1.88618256 -224.2991333 1.8860321 C-221.73975861 1.8867314 -219.1804558 1.89452455 -216.62109375 1.90234375 C-214.85132385 1.90420787 -213.08155344 1.9056318 -211.31178284 1.90663147 C-206.64448634 1.91045712 -201.97722077 1.9202878 -197.30993652 1.93133545 C-192.55102965 1.94154856 -187.79211779 1.94612887 -183.03320312 1.95117188 C-173.68878847 1.96191003 -164.3443968 1.97898701 -155 2 C-154.34279847 13.58830147 -153.69049892 25.17686789 -153.04424286 36.76578522 C-152.74392485 42.14851737 -152.44199755 47.53114864 -152.13623047 52.91357422 C-151.84052554 58.11996852 -151.54925941 63.32659482 -151.26091003 68.53340149 C-151.15083324 70.50751901 -151.03922898 72.48155205 -150.92597961 74.45549011 C-150.2655401 85.98691793 -149.83819061 97.44783696 -150 109 C-146.89108462 109.33806553 -144.09881669 109.55552279 -141 109 C-138.79495357 106.63650712 -137.67995142 105.04079616 -136.25 102.25 C-135.40661073 100.7626378 -134.56011072 99.27703634 -133.7109375 97.79296875 C-133.27233398 97.00583496 -132.83373047 96.21870117 -132.38183594 95.40771484 C-130.05162007 91.34754013 -127.45452718 87.46712676 -124.875 83.5625 C-119.82934458 75.84148433 -114.84103066 68.08493316 -109.875 60.3125 C-104.04854739 51.19508481 -98.19692634 42.09498101 -92.30761719 33.01806641 C-90.9237198 30.88227555 -89.54351331 28.74413398 -88.1640625 26.60546875 C-85.87210622 23.05209662 -83.57211245 19.50403853 -81.26806641 15.95849609 C-80.05006338 14.0773216 -78.84272365 12.18966154 -77.63671875 10.30078125 C-76.93160156 9.21152344 -76.22648437 8.12226563 -75.5 7 C-74.8915625 6.05125 -74.283125 5.1025 -73.65625 4.125 C-72 2 -72 2 -69 1 C-67.17233247 0.88380411 -65.3408976 0.82341368 -63.50976562 0.79467773 C-61.82155701 0.7647599 -61.82155701 0.7647599 -60.09924316 0.73423767 C-58.88055542 0.71752518 -57.66186768 0.70081268 -56.40625 0.68359375 C-55.14921265 0.66281265 -53.89217529 0.64203156 -52.5970459 0.62062073 C-49.24759236 0.56624126 -45.89812726 0.51606305 -42.54858398 0.46777344 C-39.8439384 0.42780489 -37.13936819 0.38369788 -34.43479156 0.33933926 C-11.37837115 -0.03812861 -11.37837115 -0.03812861 0 0 Z " fill="#1D1E1C" transform="translate(2325,446)"/>
<path d="M0 0 C22.87064521 -0.0935783 45.74125869 -0.16404529 68.61205673 -0.20724869 C79.23215905 -0.22784492 89.85214217 -0.25590923 100.47216797 -0.30175781 C109.73214782 -0.34171566 118.99204132 -0.36745416 128.252105 -0.37635398 C133.15203245 -0.38155359 138.05171293 -0.39371303 142.95156097 -0.42292023 C147.57101602 -0.45023089 152.19012421 -0.45841359 156.80965233 -0.45243073 C158.49781624 -0.453524 160.18599271 -0.46138418 161.87408638 -0.4768219 C177.74378064 -0.61473513 191.36196514 2.5824521 203.25 13.75 C211.3704507 22.42821903 215.73665378 32.16692882 216.09375 44.14453125 C215.27878048 60.01606272 206.20083413 71.58332454 195.09765625 82.3046875 C178.64950373 97.04690885 156.81091444 106.28079151 135 109 C140.47266168 111.52462809 145.98732556 113.77957954 151.65014648 115.84057617 C160.67277591 119.1343944 169.02520279 122.56691725 177 128 C177.63035156 128.41765625 178.26070312 128.8353125 178.91015625 129.265625 C184.43339824 133.33681074 187.26329261 139.91629567 188.6796875 146.49609375 C190.99388562 164.58634981 186.67789249 181.95732117 175.6875 196.6875 C174.48082066 198.14392779 173.25094061 199.58140755 172 201 C171.34386719 201.75023437 170.68773437 202.50046875 170.01171875 203.2734375 C143.15173859 232.04848023 91.12314069 243.81342082 53.29296875 245.12890625 C41.57725163 245.30411638 29.40369509 244.85092377 18 242 C18 235.73 18 229.46 18 223 C19.37929687 222.97421875 20.75859375 222.9484375 22.1796875 222.921875 C52.93921538 222.10154752 78.07255127 212.92744873 100 191 C100.62777344 190.37222656 101.25554687 189.74445313 101.90234375 189.09765625 C109.57016868 180.80547916 112.48177863 171.1607187 113 160 C112.56852389 149.60281769 107.81381424 139.75982222 101 132 C88.1333154 120.60243961 73.31087485 120.26833945 57 120 C57.58020145 112.55408141 58.6068804 105.33802423 60 98 C60.83023682 98.01047363 61.66047363 98.02094727 62.51586914 98.03173828 C95.18643719 99.3875692 95.18643719 99.3875692 124.03125 85.953125 C130.93109048 79.10804516 135.35515745 70.32450497 136.0625 60.61328125 C135.82408731 50.64465048 130.33012862 42.31634431 124 35 C113.23384835 26.6069385 101.48609915 22.80018169 87.9375 22.8125 C87.19959229 22.81185547 86.46168457 22.81121094 85.70141602 22.81054688 C78.98656225 22.87427028 72.60180822 23.76861813 66 25 C65.77107056 25.93996323 65.54214111 26.87992645 65.30627441 27.84837341 C62.69687168 38.47283053 59.81650907 49.00737211 56.84375 59.53515625 C56.3428984 61.31552587 55.84225304 63.09595351 55.34179688 64.87643433 C54.00648992 69.62485595 52.66835288 74.37247541 51.32955933 79.11991501 C49.93501784 84.06658575 48.54283052 89.01391899 47.15039062 93.96118164 C45.16212076 101.02453017 43.17290087 108.08761 41.18262482 115.15039349 C38.00233433 126.43647891 34.82886174 137.72446256 31.65971375 149.01368141 C30.26521108 153.98037997 28.86950827 158.94674135 27.47370148 163.91307354 C26.38043963 167.8031431 25.28777981 171.69337949 24.1965332 175.58401489 C23.18395828 179.1939132 22.16947598 182.80326985 21.1534729 186.41220474 C20.60899558 188.3481369 20.06655333 190.28464105 19.52416992 192.22116089 C19.04330933 193.92720993 19.04330933 193.92720993 18.55273438 195.66772461 C18.27506226 196.65614853 17.99739014 197.64457245 17.71130371 198.66294861 C17 201 17 201 16 203 C-6.77 203 -29.54 203 -53 203 C-52.28641801 198.00492604 -51.42219614 193.35539949 -50.12768555 188.51806641 C-49.93786354 187.79600856 -49.74804153 187.07395071 -49.55246735 186.33001232 C-48.91769458 183.9195057 -48.27723289 181.51054935 -47.63671875 179.1015625 C-47.17597797 177.357236 -46.71556322 175.61282336 -46.25544739 173.86833191 C-45.00017984 169.11353302 -43.73978195 164.36010754 -42.47836304 159.60693741 C-41.42070191 155.61904174 -40.36600212 151.63036539 -39.31128502 147.64169025 C-26.29090302 98.40568995 -13.14679988 49.20236586 0 0 Z " fill="#1D1E1C" transform="translate(1253,446)"/>
<path d="M0 0 C13.53 0 27.06 0 41 0 C39.83646115 5.81769424 38.69030544 11.4857594 37.23852539 17.21289062 C36.99065198 18.19493863 36.99065198 18.19493863 36.73777103 19.19682598 C36.1934758 21.3505855 35.64561318 23.50341944 35.09765625 25.65625 C34.70398091 27.21042606 34.31050274 28.76465208 33.91720581 30.31892395 C32.85656146 34.50740877 31.79260288 38.6950449 30.72782516 42.88248062 C30.0593052 45.51256898 29.39169381 48.14288628 28.72439575 50.77328491 C15.67021143 102.23036883 2.52001229 153.66314173 -11 205 C-35.09 205 -59.18 205 -84 205 C-88.95 195.1 -93.9 185.2 -99 175 C-102.82471497 167.70788492 -102.82471497 167.70788492 -106.67578125 160.4296875 C-109.5769462 154.9413949 -112.33715671 149.38306506 -115.07543945 143.81201172 C-117.80498412 138.29060128 -120.65667834 132.83919191 -123.53515625 127.39453125 C-129.6169015 115.88384937 -135.52697376 104.28676064 -141.4375 92.6875 C-142.52268109 90.56049311 -143.60796705 88.43353973 -144.69335938 86.30664062 C-146.66783717 82.43609719 -148.64229167 78.56554239 -150.61499023 74.6940918 C-151.03287811 73.87991791 -151.45076599 73.06574402 -151.88131714 72.22689819 C-152.84270409 70.31312 -153.7404911 68.36762703 -154.62524414 66.41723633 C-155.07891357 65.61954834 -155.53258301 64.82186035 -156 64 C-159.08961458 63.02525184 -159.08961458 63.02525184 -162 63 C-162.17383839 63.922835 -162.17383839 63.922835 -162.35118866 64.86431313 C-163.48372721 70.71970874 -164.84739366 76.45139292 -166.45507812 82.19287109 C-166.69290009 83.05334045 -166.93072205 83.91380981 -167.17575073 84.800354 C-167.95753431 87.62566507 -168.74435798 90.44954537 -169.53125 93.2734375 C-170.08767087 95.28031997 -170.6437761 97.28728999 -171.19958496 99.29434204 C-172.66558039 104.5848047 -174.13585972 109.87406746 -175.60705566 115.16308594 C-177.06613794 120.41139391 -178.52119593 125.66081694 -179.9765625 130.91015625 C-182.51239579 140.05485696 -185.05294842 149.19823814 -187.59521484 158.34115219 C-189.41587932 164.89146101 -191.22921676 171.44376504 -193.0390625 177.99707031 C-193.73411443 180.51077076 -194.42935138 183.02441993 -195.12467957 185.53804398 C-195.55852836 187.10807014 -195.99165727 188.67829543 -196.42402649 190.24872971 C-197.01067907 192.37938186 -197.5997814 194.50934196 -198.18945312 196.63916016 C-198.51723755 197.82740387 -198.84502197 199.01564758 -199.18273926 200.23989868 C-200 203 -200 203 -201 205 C-213.68606922 205.20101166 -226.33076328 204.58398202 -239 204 C-236.25471328 192.0864804 -233.29905526 180.24091573 -230.203125 168.4140625 C-229.73583672 166.62298953 -229.26870376 164.83187603 -228.80171204 163.04072571 C-227.54751709 158.23276079 -226.29058887 153.42551459 -225.03294754 148.61845016 C-224.24621883 145.61054344 -223.46024883 142.60243948 -222.67453003 139.5942688 C-214.6073003 108.70945285 -206.49850513 77.83558142 -198.36161804 46.96904755 C-197.5621415 43.93613998 -196.76293346 40.90316174 -195.96374512 37.87017822 C-194.71090482 33.11621967 -193.45689581 28.36257093 -192.20189476 23.60918236 C-191.74089098 21.8626635 -191.28019298 20.11606389 -190.8198185 18.36937904 C-190.19275188 15.99071289 -189.5644523 13.61237597 -188.93579102 11.23413086 C-188.75261951 10.53832727 -188.56944801 9.84252369 -188.38072586 9.12563515 C-187.655373 6.38625311 -186.89647461 3.68942382 -186 1 C-161.25 1 -136.5 1 -111 1 C-109.35 4.96 -107.7 8.92 -106 13 C-102.71566478 20.68845195 -99.37919089 28.35278209 -96 36 C-95.65565918 36.78101074 -95.31131836 37.56202148 -94.95654297 38.36669922 C-77.05646047 79.56162167 -77.05646047 79.56162167 -47.8125 111.9375 C-43.09280286 113.25282543 -39.49150499 112.98423233 -35 111 C-30.7027404 107.59809293 -29.53324543 103.68418593 -27.93359375 98.64453125 C-27.65817749 97.80686722 -27.38276123 96.96920319 -27.09899902 96.1061554 C-26.1975892 93.34599063 -25.31638653 90.57991259 -24.4375 87.8125 C-23.97937424 86.38898224 -23.97937424 86.38898224 -23.51199341 84.93670654 C-15.09290721 58.75343343 -7.88285041 32.1723381 -1.8046875 5.34765625 C-1 2 -1 2 0 0 Z " fill="#1D1E1C" transform="translate(3332,444)"/>
<path d="M0 0 C16.74443716 11.65307488 29.68186574 29.01629978 33.578125 49.3125 C36.16679522 73.51530991 32.3010771 95.35837803 17.04296875 114.76171875 C16.19057342 115.81783835 15.33641374 116.87253646 14.48046875 117.92578125 C11.96403167 121.03261318 9.75742551 124.30712484 7.54296875 127.63671875 C2.91998755 134.39589232 -2.35122247 140.19873494 -8.01953125 146.07421875 C-8.73625 146.85410156 -9.45296875 147.63398437 -10.19140625 148.4375 C-39.02473205 178.9509632 -84.32422875 193.7671539 -125.359375 195.26171875 C-154.86568075 195.91386687 -184.44861461 189.13456346 -206.59936523 168.60546875 C-224.48828359 151.20917337 -233.56189892 126.62169409 -234.30517578 101.95239258 C-234.6918491 71.3102897 -222.8752694 43.67555229 -202.01953125 21.57421875 C-195.51352871 15.27038013 -188.23730617 9.78924434 -180.64282227 4.85620117 C-177.91549097 3.07282496 -177.91549097 3.07282496 -175.22241211 0.69262695 C-163.09829066 -8.89904707 -147.86300823 -6.95823135 -133.24871826 -6.54376221 C-129.60834915 -6.45054562 -125.96739847 -6.41034966 -122.32617188 -6.36523438 C-115.22255894 -6.26963178 -108.12127644 -6.11669588 -101.01953125 -5.92578125 C-101.01953125 -5.26578125 -101.01953125 -4.60578125 -101.01953125 -3.92578125 C-103.07336213 -2.37325524 -105.13616218 -0.92399518 -107.26953125 0.51171875 C-136.29880647 20.75150287 -155.64281961 52.67713863 -162.0546875 87.37890625 C-165.1030895 105.66764052 -164.5261766 122.90238956 -161.01953125 141.07421875 C-160.81070312 142.16887451 -160.81070312 142.16887451 -160.59765625 143.28564453 C-158.6771791 152.86802531 -155.96307374 159.61368783 -148 165.58984375 C-138.61096696 171.83723093 -128.84696178 172.33659958 -117.890625 170.421875 C-94.37942088 165.6793883 -72.8415567 152.856628 -59.24023438 132.8034668 C-45.1690473 111.03524547 -39.78756412 85.99410027 -45.20703125 60.57421875 C-48.17601635 50.01621806 -55.34448878 42.30731831 -64.453125 36.5 C-76.26063158 29.94027412 -87.93144564 30.20449223 -101.01953125 32.07421875 C-101.01953125 25.14421875 -101.01953125 18.21421875 -101.01953125 11.07421875 C-91.90390405 8.32448646 -82.78559358 5.58415322 -73.66227722 2.86003876 C-69.4255906 1.59461155 -65.19019144 0.3251844 -60.95751953 -0.95361328 C-56.86900827 -2.18869216 -52.77740041 -3.41296314 -48.68347168 -4.62995911 C-47.12591696 -5.09499992 -45.56949565 -5.56385521 -44.01428223 -6.03666687 C-41.82754929 -6.70074503 -39.63709598 -7.35086465 -37.4453125 -7.99804688 C-36.20177002 -8.37110962 -34.95822754 -8.74417236 -33.67700195 -9.12854004 C-21.26766986 -11.83347789 -10.46425654 -6.37255253 0 0 Z " fill="#1D1E1C" transform="translate(1988.01953125,458.92578125)"/>
<path d="M0 0 C16.48097332 11.19833022 28.2712522 28.90933521 32.2890625 48.46484375 C35.84602923 69.7491965 31.99881858 90.91860154 19.71923828 108.79443359 C17.66472629 111.58739726 15.50814467 114.28826232 13.32421875 116.98046875 C11.11306696 119.79532317 9.23763971 122.63224522 7.38671875 125.69140625 C4.41665249 130.49941939 0.98766884 134.54935683 -2.87109375 138.66796875 C-4.80893063 140.74471866 -6.61768459 142.87765766 -8.42578125 145.06640625 C-12.77074616 150.02781927 -17.83656109 153.99451232 -23.05078125 158.00390625 C-24.04464844 158.78636719 -25.03851562 159.56882812 -26.0625 160.375 C-48.15321175 177.27490506 -74.00817396 186.7569141 -101.05078125 192.00390625 C-102.27410156 192.25140625 -103.49742187 192.49890625 -104.7578125 192.75390625 C-123.56462546 195.90661995 -144.51529668 195.63208328 -163.05078125 191.00390625 C-163.72318848 190.83761719 -164.3955957 190.67132812 -165.08837891 190.5 C-179.83694833 186.69573562 -193.75914723 180.36283939 -205.05078125 170.00390625 C-205.79457031 169.35164062 -206.53835938 168.699375 -207.3046875 168.02734375 C-224.81571461 151.76492901 -234.34752462 127.57368743 -235.25390625 103.91796875 C-235.75680691 76.33530893 -227.78303355 50.38061109 -210.05078125 29.00390625 C-209.03951172 27.74707031 -209.03951172 27.74707031 -208.0078125 26.46484375 C-196.64245805 13.03112273 -180.73342783 1.84522954 -165.05078125 -5.99609375 C-163.04909375 -6.08754158 -161.04429869 -6.11361072 -159.04052734 -6.10961914 C-157.77937103 -6.10954361 -156.51821472 -6.10946808 -155.21884155 -6.10939026 C-153.83730022 -6.10428324 -152.45575929 -6.09906724 -151.07421875 -6.09375 C-149.66460215 -6.09188519 -148.25498491 -6.09046158 -146.84536743 -6.08946228 C-143.13324193 -6.08564208 -139.42115547 -6.07581603 -135.70904541 -6.0647583 C-131.92192106 -6.0545335 -128.13479042 -6.04996237 -124.34765625 -6.04492188 C-116.91534677 -6.03419333 -109.48306948 -6.01712286 -102.05078125 -5.99609375 C-105.14850917 -2.82888408 -108.34533844 -0.23722777 -111.92578125 2.37890625 C-142.14842678 25.26022776 -158.33607451 57.95781443 -164.51171875 94.75 C-164.8233776 97.18009669 -164.96703962 99.55446366 -165.05078125 102.00390625 C-165.0765625 102.64166992 -165.10234375 103.27943359 -165.12890625 103.93652344 C-165.73794275 120.96670646 -165.68677868 145.99447232 -155.30078125 160.4375 C-153.31511746 162.2990598 -151.40492413 163.64336833 -149.05078125 165.00390625 C-148.26316406 165.49117187 -147.47554687 165.9784375 -146.6640625 166.48046875 C-134.58555203 173.2687054 -121.71157533 170.9840337 -108.88134766 167.39746094 C-86.03205686 160.28405279 -66.53628828 144.76829385 -55.17578125 123.69140625 C-44.48799622 102.89235571 -41.13734913 79.79582969 -46.984375 56.97265625 C-50.6998068 46.62932964 -58.76964746 38.83879579 -68.55078125 34.19140625 C-80.1522015 29.34685714 -89.53125676 29.61284797 -102.05078125 31.00390625 C-102.05078125 24.40390625 -102.05078125 17.80390625 -102.05078125 11.00390625 C-97.14340788 9.16364124 -92.39702182 7.42795867 -87.41040039 5.90332031 C-85.53288841 5.32822723 -85.53288841 5.32822723 -83.6174469 4.74151611 C-82.273782 4.33362223 -80.92994101 3.92630803 -79.5859375 3.51953125 C-78.89842344 3.31141563 -78.21090939 3.10330002 -77.50256157 2.88887787 C-73.86884437 1.79032853 -70.23380829 0.69625527 -66.59790039 -0.39501953 C-63.60707272 -1.29372669 -60.61939802 -2.20196504 -57.6340332 -3.11865234 C-54.00473879 -4.23300136 -50.37073546 -5.33047809 -46.7328167 -6.41632843 C-45.3568986 -6.82997953 -43.9826883 -7.24935982 -42.61036873 -7.67479706 C-25.88387323 -12.84846 -14.74177686 -8.9221473 0 0 Z " fill="#1D1E1C" transform="translate(1723.05078125,458.99609375)"/>
<path d="M0 0 C1.31659607 -0.00151062 1.31659607 -0.00151062 2.65979004 -0.00305176 C25.25012757 0.01438301 49.26237268 1.04579089 70.875 8.25 C68.8923911 15.31512428 66.467956 22.08726835 63.6875 28.875 C63.31947266 29.78378906 62.95144531 30.69257813 62.57226562 31.62890625 C61.67716521 33.83759559 60.7780465 36.04455048 59.875 38.25 C51.79804057 36.95430642 44.04887403 34.98784973 36.1875 32.75 C26.40036531 30.04501303 17.02053255 27.89912175 6.875 27.25 C5.99328125 27.18039062 5.1115625 27.11078125 4.203125 27.0390625 C-23.61697825 25.91589063 -50.90266863 36.78020568 -72.125 54.25 C-72.89972656 54.86101562 -73.67445313 55.47203125 -74.47265625 56.1015625 C-97.80352492 75.44108327 -110.5192661 108.17198864 -114.42675781 137.51611328 C-115.5327111 150.2901827 -111.39621573 162.22653282 -103.53125 172.2890625 C-94.48904921 181.97104165 -82.12549507 186.99618518 -69.0625 187.5625 C-57.57868135 187.43750606 -45.58255239 182.93054282 -37.4375 174.75 C-36.87804688 174.14671875 -36.31859375 173.5434375 -35.7421875 172.921875 C-34.125 171.25 -34.125 171.25 -31.0625 169 C-26.0275767 164.95311272 -22.2158992 157.58933649 -21.125 151.25 C-20.19297944 139.9740791 -22.16375796 130.98633815 -29.29296875 122.0703125 C-37.63551982 113.7811253 -47.86707052 112.02360094 -59.125 111.25 C-58.50867054 106.29001528 -56.32664371 102.31328034 -54.0625 97.9375 C-53.68544922 97.19693359 -53.30839844 96.45636719 -52.91992188 95.69335938 C-51.99371843 93.87612478 -51.06009371 92.06267596 -50.125 90.25 C-23.91537677 89.38341379 2.27846983 89.15841344 28.5 89.1875 C29.2771788 89.18835602 30.0543576 89.18921204 30.85508728 89.19009399 C40.52841537 89.20153554 50.20170612 89.22168548 59.875 89.25 C57.1479134 102.57669839 54.1331519 115.81255101 50.92578125 129.03125 C50.46286305 130.94741942 50.00015466 132.86363953 49.53764343 134.77990723 C48.57881239 138.75001017 47.61815924 142.71966579 46.65600586 146.68896484 C45.42250877 151.77791155 44.19268477 156.86773724 42.96406269 161.95786285 C42.01376259 165.8939567 41.06209236 169.82971817 40.1099453 173.7653656 C39.65551731 175.64400425 39.20139438 177.52271672 38.74758339 179.40150452 C38.11730237 182.00952775 37.48530327 184.6171284 36.8527832 187.22460938 C36.66629715 187.99748795 36.4798111 188.77036652 36.28767395 189.56666565 C35.57366686 192.50363956 34.8313351 195.3809947 33.875 198.25 C25.20402667 202.044643 15.37739687 203.56177724 6.125 205.3125 C5.45813171 205.44006683 4.79126343 205.56763367 4.10418701 205.69906616 C-8.90228152 208.17598308 -21.94009227 210.02406489 -35.125 211.25 C-35.87249512 211.32057617 -36.61999023 211.39115234 -37.39013672 211.46386719 C-76.03452334 214.90175331 -122.0910491 215.95324966 -153.70410156 189.95117188 C-168.9574045 176.99277675 -177.24424248 161.4308267 -179.125 141.25 C-181.32121307 107.46760056 -171.99998606 75.73861989 -149.9765625 49.7109375 C-147.73957273 47.17568243 -145.44873393 44.70585258 -143.125 42.25 C-142.35414063 41.4146875 -141.58328125 40.579375 -140.7890625 39.71875 C-113.30897111 10.90467359 -69.98268414 4.87290393 -32.125 1.25 C-31.1673877 1.1557373 -30.20977539 1.06147461 -29.22314453 0.96435547 C-19.48799722 0.10451231 -9.76613872 0.00782064 0 0 Z " fill="#1D1E1C" transform="translate(3550.125,441.75)"/>
<path d="M0 0 C66.99 0 133.98 0 203 0 C201.53818986 8.03995578 199.83749952 16.03750207 198 24 C156.75 24.33 115.5 24.66 73 25 C61.67101025 46.52508053 57.43475685 60.95670202 54 85 C93.6 85 133.2 85 174 85 C169.5 103 169.5 103 167 110 C165.89103363 110.00142502 164.78206726 110.00285004 163.63949585 110.00431824 C153.13633161 110.02106166 142.63355117 110.06405827 132.13059044 110.13209057 C126.7321872 110.16623274 121.33406314 110.1914506 115.93554688 110.19555664 C110.7157042 110.19986708 105.49648993 110.22855571 100.27684402 110.27343178 C98.29561665 110.28631954 96.31431374 110.29074578 94.33304977 110.28615379 C77.85395043 110.25688358 65.2942794 112.41883885 52 123 C50.948125 123.763125 49.89625 124.52625 48.8125 125.3125 C37.58410629 136.04185399 31.99099911 150.51702457 31.4375 165.8125 C31.12133072 173.63600783 31.12133072 173.63600783 30 177 C31.07341141 176.92894547 32.14682281 176.85789093 33.25276184 176.78468323 C47.07344329 175.93124539 60.85620922 175.87044705 74.69921875 175.90234375 C77.11586986 175.9042138 79.53252135 175.90563492 81.94917297 175.90663147 C88.24375495 175.91041047 94.53831306 175.92020012 100.83288574 175.93133545 C107.28246742 175.94165004 113.73205304 175.9461504 120.18164062 175.95117188 C132.78777078 175.96182754 145.39388339 175.97884695 158 176 C157 184 157 184 152 203 C84.68 203 17.36 203 -52 203 C-50.87499682 193.99997458 -50.87499682 193.99997458 -49.99603271 190.59681702 C-49.69878799 189.43093929 -49.69878799 189.43093929 -49.39553833 188.24150848 C-49.07164627 187.00253185 -49.07164627 187.00253185 -48.74121094 185.73852539 C-48.51104279 184.84177849 -48.28087463 183.94503159 -48.04373169 183.02111053 C-47.27866885 180.04538665 -46.50654269 177.0715437 -45.734375 174.09765625 C-45.1869344 171.97438783 -44.63992691 169.8510077 -44.09332275 167.7275238 C-42.62289002 162.02038014 -41.14628208 156.31485132 -39.66833496 150.60964966 C-38.13505234 144.6872105 -36.60691471 138.76344395 -35.078125 132.83984375 C-32.59377976 123.2167592 -30.1057715 113.59462831 -27.61523438 103.97314453 C-24.78829362 93.05181028 -21.96854254 82.12863966 -19.15264893 71.20445251 C-17.22209455 63.71520646 -15.28798572 56.2268798 -13.35314941 48.73873901 C-12.45483161 45.26191022 -11.55768849 41.78478154 -10.66149902 38.30740356 C-9.6161772 34.25211547 -8.5677071 30.19765421 -7.51677704 26.14381599 C-7.13822273 24.68157912 -6.76072068 23.21906932 -6.38440704 21.7562542 C-5.87249736 19.76706551 -5.35665033 17.77893681 -4.83984375 15.79101562 C-4.55488037 14.68874634 -4.26991699 13.58647705 -3.97631836 12.45080566 C-2.79023497 8.2585837 -1.37773433 4.13320299 0 0 Z " fill="#1D1E1C" transform="translate(2391,445)"/>
</svg>
